<?xml version="1.0" standalone="no"?><!DOCTYPE svg PUBLIC "-//W3C//DTD SVG 1.1//EN" "http://www.w3.org/Graphics/SVG/1.1/DTD/svg11.dtd"><svg t="1622017337560" class="icon" viewBox="0 0 1024 1024" version="1.1" xmlns="http://www.w3.org/2000/svg" p-id="3387" xmlns:xlink="http://www.w3.org/1999/xlink" width="200" height="200"><defs><style type="text/css"></style></defs><path d="M640.42 481.3h268.15v283.12c0 90.46-73.7 163.8-164.66 163.8H640.42V481.3z" fill="#D8E9FF" p-id="3388"></path><path d="M753.77 928.22H717.7c-42.75-0.12-77.33-35.11-77.29-78.21V508.44c-0.04-43.1 34.54-78.09 77.29-78.21h139.11c42.75 0.12 77.33 35.11 77.29 78.21v237.23c0.01 100.71-80.88 182.55-180.33 182.55z m-36.06-419.75v341.54h36.07c57-0.18 103.1-46.84 103.04-104.3V508.47H717.71z" fill="#D8E9FF" p-id="3389"></path><path d="M197.41 98.23h413.56c28.04-0.08 54.97 10.8 74.86 30.26s31.11 45.89 31.2 73.49v726.24H197.41c-28.04 0.08-54.97-10.8-74.86-30.26s-31.11-45.89-31.2-73.49V201.98c0.09-27.6 11.31-54.04 31.2-73.49s46.82-30.35 74.86-30.26z" fill="#4980FF" p-id="3390"></path><path d="M637.5 928.22H197.41c-58.48 0-106.06-46.54-106.06-103.75V201.98c0-57.21 47.58-103.75 106.06-103.75h413.56c58.51 0 106.06 46.54 106.06 103.75v648.45c0 42.9-35.68 77.79-79.53 77.79z m-440.09-752.2c-14.61-0.04-26.48 11.58-26.53 25.95v622.49c0 14.3 11.9 25.95 26.53 25.95h440.15l-0.06-648.43c-0.05-14.36-11.91-25.97-26.5-25.95H197.41z" fill="#4980FF" p-id="3391"></path><path d="M562.21 369.95H258.94c-10.67-0.09-20.88-4.36-28.36-11.88-7.48-7.52-11.63-17.68-11.54-28.23 0-22.12 17.88-40.08 39.9-40.08h303.27c22.02 0 39.9 17.96 39.9 40.08 0 22.15-17.88 40.11-39.9 40.11zM410.58 519.61H258.94c-10.67-0.09-20.87-4.36-28.35-11.87-7.48-7.52-11.64-17.66-11.55-28.2 0-22.15 17.88-40.11 39.9-40.11h151.64c22.05 0 39.9 17.96 39.9 40.11 0 22.11-17.85 40.07-39.9 40.07z" fill="#FFFFFF" p-id="3392"></path></svg>