<?xml version="1.0" standalone="no"?><!DOCTYPE svg PUBLIC "-//W3C//DTD SVG 1.1//EN" "http://www.w3.org/Graphics/SVG/1.1/DTD/svg11.dtd"><svg t="1622019178841" class="icon" viewBox="0 0 1024 1024" version="1.1" xmlns="http://www.w3.org/2000/svg" p-id="4544" xmlns:xlink="http://www.w3.org/1999/xlink" width="200" height="200"><defs><style type="text/css"></style></defs><path d="M511.32 98.23c20.89 0 41.31 6.44 58.4 19.31l313.85 230.77c26.59 19.81 42.73 52 42.73 86.17v440.75c0.95 29.22-21.84 52.99-49.85 52.99H677.03c-37.03 0-67.42-31.2-67.42-69.83v-52c0-18.32-14.24-33.18-31.81-33.18h-132c-17.57 0-31.81 14.86-31.81 33.18v52c0 38.63-30.39 69.83-67.42 69.83H147.14c-28.01 0-50.8-23.77-50.8-52.99V434.48c0-34.17 16.14-66.36 42.73-86.17l313.85-230.77c17.09-12.87 37.51-19.31 58.4-19.31z m120.22 456.49H391.13c-13.83 0-25.04 13.93-25.04 31.12s11.21 31.13 25.04 31.13h240.41c13.83 0 25.04-13.94 25.04-31.13 0-17.18-11.21-31.12-25.04-31.12z" fill="#4980FF" p-id="4545"></path></svg>