<?xml version="1.0" standalone="no"?><!DOCTYPE svg PUBLIC "-//W3C//DTD SVG 1.1//EN" "http://www.w3.org/Graphics/SVG/1.1/DTD/svg11.dtd"><svg t="1622019175006" class="icon" viewBox="0 0 1024 1024" version="1.1" xmlns="http://www.w3.org/2000/svg" p-id="4416" xmlns:xlink="http://www.w3.org/1999/xlink" width="200" height="200"><defs><style type="text/css"></style></defs><path d="M877.87 926.79H678.44c-37.04 0-67.43-31.2-67.43-69.83v-52c0-18.32-14.25-33.18-31.81-33.18H447.18c-17.57 0-31.81 14.86-31.81 33.18v52c0 38.63-30.39 69.83-67.43 69.83H148.5c-28.02 0-50.81-23.77-50.81-52.99V433c0-34.17 16.14-66.37 42.74-86.18l313.88-230.79c17.09-12.88 37.51-19.32 58.41-19.32 20.89 0 41.31 6.44 58.41 19.32L885 346.83c26.59 19.81 42.74 52 42.74 86.18V873.8c0.94 29.21-21.85 52.99-49.87 52.99z m-197.06-72.81h178.07V433c0-10.4-4.75-20.31-13.3-26.25L531.71 175.96c-5.22-3.96-11.87-5.94-18.04-5.94-6.65 0-12.82 1.98-18.04 5.94l-314.84 230.8c-8.07 5.94-13.3 15.85-13.3 26.25v420.98h178.07v-49.03c0-58.44 45.59-105.99 101.62-105.99h132.01c56.03 0 101.62 47.55 101.62 105.99v49.02z" fill="#666666" p-id="4417"></path><path d="M392.51 615.51c-13.83 0-25.04-13.94-25.04-31.13 0-17.19 11.21-31.13 25.04-31.13h240.43c13.83 0 25.04 13.93 25.04 31.13 0 17.19-11.22 31.13-25.04 31.13H392.51z" fill="#4980FF" p-id="4418"></path></svg>