<?xml version="1.0" standalone="no"?><!DOCTYPE svg PUBLIC "-//W3C//DTD SVG 1.1//EN" "http://www.w3.org/Graphics/SVG/1.1/DTD/svg11.dtd"><svg t="1622019124427" class="icon" viewBox="0 0 1024 1024" version="1.1" xmlns="http://www.w3.org/2000/svg" p-id="3775" xmlns:xlink="http://www.w3.org/1999/xlink" width="200" height="200"><defs><style type="text/css"></style></defs><path d="M513 98.23c230.13 0 415 184.87 415 415 0 101.87-37.72 199.93-105.63 279.17l-7.57 7.57L845 864.1c7.57 11.3 11.33 26.41 3.78 41.5-3.78 11.3-15.11 18.85-30.2 22.63H513c-230.13 0-415-184.87-415-415s184.87-415 415-415z" fill="#4980FF" p-id="3776"></path><path d="M404.25 439.99c22.65 0 37.74 15.09 37.74 37.72v75.46c0 22.65-15.09 37.74-37.74 37.74-22.63 0-37.72-15.09-37.72-37.74v-75.43c0-22.67 15.09-37.75 37.72-37.75z m226.36 0c22.63 0 37.74 15.09 37.74 37.72v75.46c0 22.65-15.11 37.74-37.74 37.74s-37.72-15.09-37.72-37.74v-75.43c0.01-22.67 15.1-37.75 37.72-37.75z" fill="#FFFFFF" p-id="3777"></path></svg>