<?xml version="1.0" standalone="no"?><!DOCTYPE svg PUBLIC "-//W3C//DTD SVG 1.1//EN" "http://www.w3.org/Graphics/SVG/1.1/DTD/svg11.dtd"><svg t="1622019132317" class="icon" viewBox="0 0 1024 1024" version="1.1" xmlns="http://www.w3.org/2000/svg" p-id="3903" xmlns:xlink="http://www.w3.org/1999/xlink" width="200" height="200"><defs><style type="text/css"></style></defs><path d="M513 98.15c230.15 0 415.03 184.89 415.03 415.03 0 101.88-37.72 199.95-105.64 279.2l-7.57 7.57 30.2 64.13c7.57 11.3 11.33 26.42 3.78 41.5-3.78 11.3-15.11 18.85-30.2 22.63H513c-230.15 0-415.03-184.89-415.03-415.03S282.85 98.15 513 98.15z m0 75.44a338.17 338.17 0 0 0-339.6 339.6c0 184.89 147.17 332.03 328.27 339.59h252.8l-33.96-67.97 37.72-37.72c60.38-64.13 94.33-147.14 94.33-233.93 0-184.89-147.14-332.03-328.24-339.59H513v0.02z" fill="#666666" p-id="3904"></path><path d="M404.24 439.94c22.66 0 37.74 15.09 37.74 37.72v75.46c0 22.66-15.09 37.74-37.74 37.74-22.63 0-37.72-15.09-37.72-37.74v-75.44c0-22.65 15.09-37.74 37.72-37.74z m226.39 0c22.63 0 37.74 15.09 37.74 37.72v75.46c0 22.66-15.11 37.74-37.74 37.74s-37.72-15.09-37.72-37.74v-75.44c0-22.65 15.08-37.74 37.72-37.74z" fill="#4980FF" p-id="3905"></path></svg>