<?xml version="1.0" standalone="no"?><!DOCTYPE svg PUBLIC "-//W3C//DTD SVG 1.1//EN" "http://www.w3.org/Graphics/SVG/1.1/DTD/svg11.dtd"><svg t="1622019145578" class="icon" viewBox="0 0 1024 1024" version="1.1" xmlns="http://www.w3.org/2000/svg" p-id="4160" xmlns:xlink="http://www.w3.org/1999/xlink" width="200" height="200"><defs><style type="text/css"></style></defs><path d="M780 66.22v261.82c1.2 100.24-51.91 189.23-132.84 237.77 132.5 47.19 234.89 161.62 262.49 306.3a72.985 72.985 0 0 1-11.09 54.82 72.975 72.975 0 0 1-46.65 30.86c-4.61 0.84-9.28 1.26-13.97 1.25H184.03c-19.35 0-37.91-7.69-51.59-21.37s-21.37-32.24-21.37-51.59c-0.11-4.69 0.31-9.37 1.25-13.97 27.5-144.12 129.2-258.22 260.96-305.77a266.835 266.835 0 0 1-52.39-40.71 268.9 268.9 0 0 1-78.91-190.29v-19.18C254.31 175.7 371.12 67.94 511.38 66.22H780z" fill="#4980FF" p-id="4161"></path><path d="M442.3 343.68c0 37.99 30.8 68.79 68.79 68.79 37.99 0 68.79-30.8 68.79-68.79s-30.8-68.79-68.79-68.79c-37.99 0-68.79 30.8-68.79 68.79z" fill="#FFFFFF" p-id="4162"></path></svg>