<?xml version="1.0" standalone="no"?><!DOCTYPE svg PUBLIC "-//W3C//DTD SVG 1.1//EN" "http://www.w3.org/Graphics/SVG/1.1/DTD/svg11.dtd"><svg t="1622019140374" class="icon" viewBox="0 0 1024 1024" version="1.1" xmlns="http://www.w3.org/2000/svg" p-id="4031" xmlns:xlink="http://www.w3.org/1999/xlink" width="200" height="200"><defs><style type="text/css"></style></defs><path d="M511.47 604.9a269.76 269.76 0 0 1-191.01-78.86 269.729 269.729 0 0 1-79.15-190.89v-19.24C253.88 172.74 374.66 63.45 518.37 65.2H781v262.63c1.72 143.66-107.77 264.28-250.92 276.43-6.06 0.43-12.13 0.64-18.61 0.64z m6.9-476.97c-110.63-1.75-203.86 82.17-213.7 192.37-8.15 114.01 77.55 213.08 191.54 221.44 9.89 0.63 19.81 0.63 29.69 0 110.19-10.05 194.03-103.28 192.37-213.91v-199.9h-199.9z" fill="#666666" p-id="4032"></path><path d="M839.13 960.79H183.18a73.16 73.16 0 0 1-51.75-21.44 73.177 73.177 0 0 1-21.44-51.75c-0.11-4.7 0.31-9.4 1.25-14.01 36.63-191.96 204.48-330.82 399.91-330.82s363.28 138.86 399.91 330.82a73.183 73.183 0 0 1-57.92 85.94c-4.62 0.85-9.31 1.27-14.01 1.26zM511.26 605.31c-165.58 0.42-307.54 118.34-338.33 281.03-0.58 3.09 0.18 6.28 2.09 8.78 2.07 2.35 5.03 3.72 8.16 3.76h655.96c5.89 0 10.66-4.77 10.66-10.66 0.1-0.62 0.1-1.26 0-1.88-30.98-162.6-173.01-280.33-338.54-280.62v-0.41z" fill="#666666" p-id="4033"></path><path d="M442.26 343.52c0 38.11 30.89 69 69 69s69-30.89 69-69-30.89-69-69-69c-38.11-0.01-69 30.89-69 69z" fill="#4980FF" p-id="4034"></path></svg>