<?xml version="1.0" standalone="no"?><!DOCTYPE svg PUBLIC "-//W3C//DTD SVG 1.1//EN" "http://www.w3.org/Graphics/SVG/1.1/DTD/svg11.dtd"><svg t="1622018234262" class="icon" viewBox="0 0 1024 1024" version="1.1" xmlns="http://www.w3.org/2000/svg" p-id="3518" xmlns:xlink="http://www.w3.org/1999/xlink" width="200" height="200"><defs><style type="text/css"></style></defs><path d="M884.87 370.565c-17.96-0.13-32.45-13.94-32.51-30.97v-45.19c0.64-38.22-14.58-75.14-42.37-102.82-27.49-27.38-65.46-43.1-105.32-43.6h-34.63c-18.08-0.18-32.6-14.2-32.46-31.34 0-17.31 14.5-31.39 32.46-31.39h34.63c118.59 1.4 213.99 94.63 213.99 209.15v44.77c0.23 8.21-3 16.18-8.98 22.13-5.91 5.91-14.11 9.25-22.69 9.26h-2.12z m-748.98 0c-8.57 0.1-16.83-3.11-22.87-8.89-6.11-5.88-9.52-13.82-9.49-22.08v-45.19c-0.78-55.03 21.34-108.13 61.53-147.73 39.76-39.18 94.53-61.34 151.77-61.42h35.41c17.9 0 32.36 14.03 32.36 31.34 0 17.36-14.46 31.39-32.36 31.39h-34.97c-40.07-0.05-78.44 15.44-106.23 42.9-28.13 27.75-43.52 64.98-42.79 103.52v45.19c-0.08 17-14.49 30.79-32.36 30.97zM918.67 601.535v123.07c-1.37 118.42-94.59 214.26-210.46 216.37h-34.77c-12.36 1.43-24.43-4.48-30.91-15.13a33.445 33.445 0 0 1 0-35.02c6.5-10.64 18.56-16.52 30.91-15.08h34.72c81.79-0.24 147.96-68.07 147.96-151.58v-122.63h62.55zM384.6 908.395c-0.1 17.84-14.44 32.37-32.36 32.79h-35.41c-118.24-1.47-213.31-99.01-213.31-218.82v-120.83h64.78v122.99c0 83.3 66.4 150.98 148.54 151.47h35.41c8.57-0.11 16.83 3.25 22.87 9.3 6.1 6.14 9.51 14.42 9.49 23.05v0.05zM959.33 563.775c0 17.37-13.23 31.45-29.5 31.45H92.15c-16.43-0.18-29.63-14.25-29.5-31.45 0-17.37 13.23-31.45 29.5-31.45h836.47c8.07-0.38 15.87 2.82 21.65 8.73 5.84 5.92 9.06 14.13 9.06 22.72z" fill="#4980FF" p-id="3519"></path><path d="M796.3 438.375v-80.45c0-38.86-13.54-76.19-37.68-103.68-23.94-27.42-56.74-42.91-91.01-42.98H354.37c-71.11 0-128.68 65.66-128.68 146.66v80.45c0.22 9.42 6.93 17.04 15.34 17.44h539.93c8.41-0.39 15.12-8.01 15.34-17.44z" fill="#D8E9FF" p-id="3520"></path><path d="M796.3 591.685v74.56c0 86.31-57.64 156.41-128.68 156.41H354.37c-71.11 0-128.68-70.02-128.68-156.41v-74.56H796.3z" fill="#4980FF" p-id="3521"></path></svg>