<?xml version="1.0" standalone="no"?><!DOCTYPE svg PUBLIC "-//W3C//DTD SVG 1.1//EN" "http://www.w3.org/Graphics/SVG/1.1/DTD/svg11.dtd"><svg t="1622018243598" class="icon" viewBox="0 0 1024 1024" version="1.1" xmlns="http://www.w3.org/2000/svg" p-id="3647" xmlns:xlink="http://www.w3.org/1999/xlink" width="200" height="200"><defs><style type="text/css"></style></defs><path d="M187.59 93.25h647.49c44.3 0 66.45 31.04 66.45 93.11v62.08c0 62.08-22.15 93.11-66.45 93.11H187.59c-44.3 0-66.45-31.04-66.45-93.11v-62.08c0-62.08 22.15-93.11 66.45-93.11z" fill="#D8E9FF" p-id="3648"></path><path d="M152.93 253.97h716.8c49.48 0 89.6 40.76 89.6 91.05v497.13c0 24.15-9.44 47.31-26.24 64.38-16.8 17.08-39.59 26.67-63.36 26.67h-716.8c-23.76 0-46.55-9.59-63.36-26.67-16.8-17.08-26.24-40.23-26.24-64.38V345.02c0-50.28 40.12-91.05 89.6-91.05z m509.42 171.82H404.26c-11.48 0-20.79 9.46-20.79 21.12 0 11.67 9.31 21.12 20.79 21.12H662.4l-33.06 33.6c-5.78 5.21-8.24 13.24-6.39 20.86 1.85 7.62 7.71 13.57 15.21 15.45 7.5 1.88 15.41-0.62 20.53-6.5l68.54-69.65c3.9-3.95 6.1-9.31 6.1-14.91s-2.19-10.96-6.1-14.91l-68.54-69.65c-5.16-5.74-13.01-8.14-20.43-6.23-7.42 1.9-13.21 7.8-15.08 15.34-1.86 7.54 0.51 15.52 6.17 20.76l33.06 33.6h-0.06z m-363.77 42.24c11.48 0 20.79-9.46 20.79-21.12 0-11.67-9.31-21.12-20.79-21.12-11.48 0-20.79 9.46-20.79 21.12s9.31 21.12 20.79 21.12z m52.19 185.38l33.06-33.6c5.65-5.25 8.01-13.22 6.14-20.77-1.87-7.54-7.67-13.43-15.1-15.32s-15.27 0.52-20.43 6.27l-68.54 69.65c-8.08 8.24-8.08 21.57 0 29.82l68.54 69.65a20.553 20.553 0 0 0 29.04-0.36c7.98-8.11 8.13-21.2 0.35-29.5l-33.06-33.6h258.14c11.48 0 20.79-9.46 20.79-21.12 0-11.67-9.31-21.12-20.79-21.12H350.77z m363.78 42.24c11.48 0 20.79-9.46 20.79-21.12 0-11.67-9.31-21.12-20.79-21.12-11.48 0-20.79 9.46-20.79 21.12 0 11.67 9.31 21.12 20.79 21.12z" fill="#4980FF" p-id="3649"></path></svg>